# xmcd
#
# Track frame offsets: 
#        183
#        19233
#        38795
#        59420
#        77715
#        90813
#        114850
#        132698
#        151820
#        171433
#        191653
#        212523
#        234773
#        254755
#        270543
#        289720
#        310273
#
# Disc length: 4365 seconds
#
# Revision: 8
# Processed by: cddbd v1.5.2PL0 Copyright (c) Steve Scherf et al.
# Submitted via: ExactAudioCopy v1.0b2
#
DISCID=e4110b11
DTITLE=Beyond - Recognition
DYEAR=1992
DGENRE=Rock
TTITLE0=不再猶豫
TTITLE1=願我能
TTITLE2=午夜怨曲
TTITLE3=兩顆心
TTITLE4=相依的心
TTITLE5=午夜流浪 (Remix Version)
TTITLE6=無悔這一生
TTITLE7=誰伴我闖蕩
TTITLE8=昔日舞曲 (New Version)
TTITLE9=俾面派對
TTITLE10=真的愛妳
TTITLE11=亞拉伯跳舞女郎(Remix Version)
TTITLE12=是錯也再不分
TTITLE13=可知道
TTITLE14=現代舞台(Remix Version
TTITLE15=喜歡妳
TTITLE16=逝去日子
EXTD=
EXTT0=
EXTT1=
EXTT2=
EXTT3=
EXTT4=
EXTT5=
EXTT6=
EXTT7=
EXTT8=
EXTT9=
EXTT10=
EXTT11=
EXTT12=
EXTT13=
EXTT14=
EXTT15=
EXTT16=
PLAYORDER=
